HIERARCHY
ROOT Hips
{
	OFFSET 0.000000 0.000000 0.000000
	CHANNELS 6 Xposition Yposition Zposition Zrotation Yrotation Xrotation 
	JOINT LHipJoint
	{
		OFFSET 0.000000 0.000000 0.000000
		CHANNELS 3 Zrotation Yrotation Xrotation
		JOINT LeftUpLeg
		{
			OFFSET 1.363060 -1.794630 0.839290
			CHANNELS 3 Zrotation Yrotation Xrotation
			JOINT LeftLeg
			{
				OFFSET 2.448110 -6.726130 0.000000
				CHANNELS 3 Zrotation Yrotation Xrotation
				JOINT LeftFoot
				{
					OFFSET 2.562200 -7.039590 0.000000
					CHANNELS 3 Zrotation Yrotation Xrotation
					JOINT LeftToeBase
					{
						OFFSET 0.157640 -0.433110 2.322550
						CHANNELS 3 Zrotation Yrotation Xrotation
						End Site
						{
							OFFSET 0.000000 0.000000 0.000000
						}
					}
				}
			}
		}
	}
	JOINT RHipJoint
	{
		OFFSET 0.000000 0.000000 0.000000
		CHANNELS 3 Zrotation Yrotation Xrotation
		JOINT RightUpLeg
		{
			OFFSET -1.305520 -1.794630 0.839290
			CHANNELS 3 Zrotation Yrotation Xrotation
			JOINT RightLeg
			{
				OFFSET -2.542530 -6.985550 0.000000
				CHANNELS 3 Zrotation Yrotation Xrotation
				JOINT RightFoot
				{
					OFFSET -2.568260 -7.056230 0.000000
					CHANNELS 3 Zrotation Yrotation Xrotation
					JOINT RightToeBase
					{
						OFFSET -0.164730 -0.452590 2.363150
						CHANNELS 3 Zrotation Yrotation Xrotation
						End Site
						{
							OFFSET 0.000000 0.000000 0.000000
						}
					}
				}
			}
		}
	}
	JOINT LowerBack
	{
		OFFSET 0.000000 0.000000 0.000000
		CHANNELS 3 Zrotation Yrotation Xrotation
		JOINT Spine
		{
			OFFSET 0.028270 2.035590 -0.193380
			CHANNELS 3 Zrotation Yrotation Xrotation
			JOINT Spine1
			{
				OFFSET 0.056720 2.048850 -0.042750
				CHANNELS 3 Zrotation Yrotation Xrotation
				JOINT Neck
				{
					OFFSET 0.000000 0.000000 0.000000
					CHANNELS 3 Zrotation Yrotation Xrotation
					JOINT Neck1
					{
						OFFSET -0.054170 1.746240 0.172020
						CHANNELS 3 Zrotation Yrotation Xrotation
						JOINT Head
						{
							OFFSET 0.104070 1.761360 -0.123970
							CHANNELS 3 Zrotation Yrotation Xrotation
							End Site
							{
								OFFSET 0.000000 0.000000 0.000000
							}
						}
					}
				}
				JOINT LeftShoulder
				{
					OFFSET 0.000000 0.000000 0.000000
					CHANNELS 3 Zrotation Yrotation Xrotation
					JOINT LeftArm
					{
						OFFSET 3.362410 1.200890 -0.311210
						CHANNELS 3 Zrotation Yrotation Xrotation
						JOINT LeftForeArm
						{
							OFFSET 4.983000 -0.000000 -0.000000
							CHANNELS 3 Zrotation Yrotation Xrotation
							JOINT LeftHand
							{
								OFFSET 3.483560 -0.000000 -0.000000
								CHANNELS 3 Zrotation Yrotation Xrotation
								JOINT LeftFingerBase
								{
									OFFSET 0.000000 0.000000 0.000000
									CHANNELS 3 Zrotation Yrotation Xrotation
									JOINT LeftHandIndex1
									{
										OFFSET 0.715260 -0.000000 -0.000000
										CHANNELS 3 Zrotation Yrotation Xrotation
										End Site
										{
											OFFSET 0.000000 0.000000 0.000000
										}
									}
								}
								JOINT LThumb
								{
									OFFSET 0.000000 0.000000 0.000000
									CHANNELS 3 Zrotation Yrotation Xrotation
									End Site
									{
										OFFSET 0.000000 0.000000 0.000000
									}
								}
							}
						}
					}
				}
				JOINT RightShoulder
				{
					OFFSET 0.000000 0.000000 0.000000
					CHANNELS 3 Zrotation Yrotation Xrotation
					JOINT RightArm
					{
						OFFSET -3.136600 1.374050 -0.404650
						CHANNELS 3 Zrotation Yrotation Xrotation
						JOINT RightForeArm
						{
							OFFSET -5.241900 -0.000000 -0.000000
							CHANNELS 3 Zrotation Yrotation Xrotation
							JOINT RightHand
							{
								OFFSET -3.444170 -0.000000 -0.000000
								CHANNELS 3 Zrotation Yrotation Xrotation
								JOINT RightFingerBase
								{
									OFFSET 0.000000 0.000000 0.000000
									CHANNELS 3 Zrotation Yrotation Xrotation
									JOINT RightHandIndex1
									{
										OFFSET -0.622530 -0.000000 -0.000000
										CHANNELS 3 Zrotation Yrotation Xrotation
										End Site
										{
											OFFSET 0.000000 0.000000 0.000000
										}
									}
								}
								JOINT RThumb
								{
									OFFSET 0.000000 0.000000 0.000000
									CHANNELS 3 Zrotation Yrotation Xrotation
									End Site
									{
										OFFSET 0.000000 0.000000 0.000000
									}
								}
							}
						}
					}
				}
			}
		}
	}
}
MOTION
Frames: 10
Frame Time: 0.008333
1.782140 17.443967 -0.612995 134.112623 -85.872811 -124.004333 -10.076703 -0.119899 1.713281 -6.192562 -3.821017 -36.102167 0.945865 1.813363 49.085457 2.564138 15.463072 18.562883 6.333200 -0.000000 -66.179000 9.776477 -1.572106 2.361271 8.709897 3.507489 -10.860342 2.132455 0.646037 4.034436 -1.013368 -4.496829 -3.381563 -0.804200 -0.000000 -48.372200 -3.940606 -2.328910 -4.511059 -1.465155 -2.194184 -3.492970 -6.541694 -2.295945 1.272227 9.945310 -8.888331 -6.812468 -3.446591 -0.278453 0.233165 0.000000 0.000000 0.000000 -1.243073 7.468722 1.154749 -67.798893 -0.776485 5.049309 -3.661490 -21.506558 0.007507 4.343971 -4.136837 -0.160867 -0.105520 0.018061 -0.000000 0.000000 0.000000 0.000000 0.000000 0.000000 0.000000 15.612756 -6.529118 0.076516 76.447289 8.670133 -5.291265 3.333837 19.426850 0.016875 0.557260 10.196594 0.043810 0.081116 -0.116646 -0.000000 0.000000 0.000000 0.000000 0.000000 0.000000 0.000000 
1.831210 17.444095 -0.649700 131.229947 -85.798525 -121.382898 -9.990775 -0.452874 1.630419 -6.179817 -4.252339 -38.507354 1.127124 1.939005 52.914054 2.678405 15.298548 21.943039 6.866500 0.000000 -64.557500 9.928598 -1.485609 2.115785 8.545505 2.920217 -10.909461 2.118142 0.564663 4.563951 -0.949956 -4.098346 -3.492275 -0.734800 0.000000 -48.707100 -4.117222 -2.315241 -4.119663 -1.502187 -2.157607 -3.430541 -6.518883 -2.257217 1.217570 9.823695 -8.729713 -6.773940 -3.432610 -0.276898 0.237818 0.000000 0.000000 0.000000 -1.296175 7.362155 1.204145 -67.684825 -1.036122 4.908589 -3.685111 -21.326907 0.007355 4.247452 -4.090382 -0.155569 -0.105731 0.019507 -0.000000 0.000000 0.000000 0.000000 0.000000 0.000000 0.000000 15.409629 -6.359351 0.100669 76.739685 8.810228 -5.387207 3.311555 19.294351 0.016477 0.549333 10.044823 0.042498 0.080230 -0.117320 -0.000000 0.000000 0.000000 0.000000 0.000000 0.000000 0.000000 
1.882345 17.442200 -0.682653 128.465378 -85.728346 -118.910431 -9.898052 -0.802261 1.527167 -6.185417 -4.655381 -40.952040 1.266186 2.073558 56.745110 2.788456 15.063014 24.965494 7.260400 -0.000000 -62.412001 10.064197 -1.393027 1.849654 8.394481 2.325954 -10.892350 2.105435 0.487072 5.065967 -0.891497 -3.727770 -3.608836 -0.670600 0.000001 -49.065600 -4.261635 -2.281051 -3.675564 -1.535159 -2.103215 -3.361702 -6.498127 -2.200034 1.151311 9.698114 -8.569855 -6.741077 -3.422596 -0.275502 0.240283 0.000000 0.000000 0.000000 -1.371081 7.228018 1.256966 -67.596319 -1.334279 4.770751 -3.703509 -21.150396 0.007198 4.174691 -4.063401 -0.152073 -0.105684 0.021181 -0.000000 0.000000 0.000000 0.000000 0.000000 0.000000 0.000000 15.217852 -6.174750 0.136005 76.963977 8.945613 -5.393269 3.289273 19.234230 0.016093 0.549838 9.895059 0.042086 0.079279 -0.118185 -0.000000 0.000000 0.000000 0.000000 0.000000 0.000000 0.000000 
1.934804 17.438537 -0.711849 125.809652 -85.665717 -116.573324 -9.801415 -1.156981 1.400327 -6.218228 -5.021215 -43.431911 1.378462 2.229109 60.580548 2.885341 14.791998 27.505376 7.520201 0.000000 -60.035600 10.184004 -1.296624 1.571012 8.255347 1.750336 -10.809592 2.092247 0.413138 5.538851 -0.842030 -3.407019 -3.732928 -0.613800 0.000000 -49.428900 -4.374383 -2.227323 -3.186016 -1.563892 -2.032134 -3.287687 -6.480274 -2.125689 1.073799 9.573153 -8.405996 -6.710820 -3.417196 -0.274363 0.241401 0.000000 0.000000 0.000000 -1.462129 7.065718 1.312090 -67.537610 -1.661097 4.634316 -3.716054 -20.977262 0.007041 4.133001 -4.058842 -0.150477 -0.105368 0.023037 -0.000000 0.000000 0.000000 0.000000 0.000000 0.000000 0.000000 15.043793 -5.973835 0.181513 77.113790 9.069860 -5.312470 3.267548 19.243499 0.015751 0.560360 9.762797 0.042475 0.078252 -0.119248 -0.000000 0.000000 0.000000 0.000000 0.000000 0.000000 0.000000 
1.987930 17.433391 -0.737527 123.259729 -85.611935 -114.365780 -9.704228 -1.509262 1.248630 -6.285520 -5.342519 -45.944805 1.483970 2.413178 64.420393 2.964526 14.526717 29.483188 7.667500 0.000000 -57.681000 10.289051 -1.198400 1.288119 8.126720 1.217135 -10.664608 2.076753 0.342673 5.982307 -0.804679 -3.153986 -3.864838 -0.566100 0.000000 -49.781200 -4.458212 -2.156060 -2.660792 -1.588527 -1.946233 -3.209870 -6.465769 -2.036212 0.986642 9.453383 -8.237152 -6.680734 -3.416582 -0.273539 0.241886 0.000000 0.000000 0.000000 -1.563358 6.880247 1.367904 -67.511533 -2.006941 4.498805 -3.722478 -20.807047 0.006885 4.126476 -4.077758 -0.150982 -0.104788 0.025020 -0.000000 0.000000 0.000000 0.000000 0.000000 0.000000 0.000000 14.892662 -5.757413 0.235302 77.186821 9.181036 -5.151294 3.246830 19.310644 0.015465 0.577225 9.662542 0.043565 0.077178 -0.120502 -0.000000 0.000000 0.000000 0.000000 0.000000 0.000000 0.000000 
2.040909 17.427211 -0.760083 120.813067 -85.563938 -112.279881 -9.607632 -1.855219 1.074937 -6.392929 -5.622966 -48.481221 1.600590 2.625586 68.241609 3.028595 14.327112 30.910597 7.752900 0.000000 -55.958100 10.381770 -1.099711 1.007819 8.003736 0.741916 -10.464617 2.057337 0.275295 6.398074 -0.780804 -2.977337 -4.002860 -0.528000 0.000000 -50.120800 -4.520342 -2.070352 -2.112142 -1.610036 -1.848055 -3.129549 -6.454548 -1.934280 0.893599 9.343841 -8.070499 -6.650415 -3.420403 -0.273033 0.241954 0.000000 0.000000 0.000000 -1.668246 6.678968 1.421834 -67.519785 -2.359824 4.362038 -3.722791 -20.642463 0.006729 4.155508 -4.119032 -0.153588 -0.103954 0.027048 -0.000000 0.000000 0.000000 0.000000 0.000000 0.000000 0.000000 14.770166 -5.535776 0.295093 77.183553 9.288327 -4.904334 3.227586 19.412663 0.015246 0.588641 9.607025 0.044358 0.076168 -0.121917 -0.000000 0.000000 0.000000 0.000000 0.000000 0.000000 0.000000 
2.092906 17.420439 -0.780043 118.489864 -85.517876 -110.330670 -9.513206 -2.192620 0.881990 -6.543825 -5.859392 -51.041473 1.744220 2.865157 72.034376 3.077210 14.205134 31.764980 7.789600 -0.000001 -54.602000 10.463526 -1.002460 0.737476 7.883721 0.337910 -10.218626 2.033072 0.210801 6.788604 -0.770915 -2.880983 -4.144952 -0.499300 0.000000 -50.438001 -4.567728 -1.973736 -1.553627 -1.629400 -1.740608 -3.048939 -6.446654 -1.823108 0.795994 9.247477 -7.897401 -6.615565 -3.428395 -0.272893 0.242894 0.000000 0.000000 0.000000 -1.770187 6.470310 1.472810 -67.563004 -2.703908 4.225010 -3.717387 -20.487419 0.006572 4.217265 -4.179438 -0.158195 -0.102895 0.029048 -0.000000 0.000000 0.000000 0.000000 0.000000 0.000000 0.000000 14.676765 -5.302441 0.358229 77.112638 9.383781 -4.606171 3.209979 19.533902 0.015093 0.592709 9.601581 0.044752 0.075222 -0.123462 0.000000 0.000000 0.000000 0.000000 0.000000 0.000000 0.000000 
2.143198 17.413538 -0.798067 116.304005 -85.467148 -108.527614 -9.419286 -2.521612 0.675735 -6.739268 -6.059664 -53.619543 1.924091 3.125326 75.763601 3.113743 14.176606 32.094991 7.801101 -0.000000 -53.613400 10.537239 -0.907539 0.481540 7.760613 0.006110 -9.939218 2.003440 0.148459 7.160448 -0.773573 -2.857469 -4.288183 -0.478900 0.000000 -50.736100 -4.611315 -1.870424 -0.998567 -1.648426 -1.627301 -2.969723 -6.441914 -1.706233 0.696957 9.168093 -7.718762 -6.575112 -3.439995 -0.273110 0.245149 0.000000 0.000000 0.000000 -1.863257 6.264771 1.519105 -67.639295 -3.024382 4.089177 -3.707006 -20.348097 0.006412 4.305512 -4.253765 -0.164303 -0.101646 0.030927 -0.000000 0.000000 0.000000 0.000000 0.000000 0.000000 0.000000 14.615128 -5.061058 0.421980 76.984036 9.471291 -4.274131 3.193999 19.652257 0.014996 0.581390 9.646270 0.044047 0.074401 -0.125075 0.000000 0.000000 0.000000 0.000000 0.000000 0.000000 0.000000 
2.191027 17.406933 -0.814845 114.272386 -85.404102 -106.880346 -9.322313 -2.843392 0.464511 -6.975385 -6.238108 -56.209005 2.142148 3.396900 79.380593 3.142381 14.247050 31.994220 7.807900 0.000000 -53.181200 10.605979 -0.815431 0.242410 7.627543 -0.261880 -9.642274 1.968636 0.087527 7.522196 -0.785854 -2.890329 -4.429885 -0.464600 -0.000000 -51.029000 -4.662673 -1.764995 -0.460119 -1.669074 -1.511955 -2.893498 -6.439954 -1.587572 0.599942 9.109092 -7.539320 -6.529263 -3.454476 -0.273649 0.248849 0.000000 0.000000 0.000000 -1.942378 6.069938 1.559090 -67.745506 -3.303863 3.955383 -3.692545 -20.235787 0.006250 4.410311 -4.335117 -0.171511 -0.100245 0.032585 -0.000000 0.000000 0.000000 0.000000 0.000000 0.000000 0.000000 14.587579 -4.819539 0.484131 76.808714 9.559904 -3.919235 3.179633 19.744544 0.014938 0.546266 9.735476 0.041544 0.073784 -0.126673 0.000000 0.000000 0.000000 0.000000 0.000000 0.000000 0.000000 
2.235802 17.400924 -0.830995 112.415110 -85.322373 -105.402262 -9.218418 -3.158771 0.256363 -7.245838 -6.406958 -58.809431 2.396219 3.671629 82.840087 3.164264 14.390299 31.542555 7.804900 0.000000 -53.026000 10.672422 -0.726567 0.020899 7.478445 -0.480832 -9.344071 1.929530 0.027250 7.883378 -0.803873 -2.957406 -4.567433 -0.454000 0.000000 -51.329700 -4.732108 -1.661678 0.050614 -1.693148 -1.398221 -2.821811 -6.440581 -1.470860 0.507185 9.072564 -7.359294 -6.477895 -3.471239 -0.274484 0.254194 0.000000 0.000000 0.000000 -2.003822 5.892498 1.592130 -67.877019 -3.526390 3.827554 -3.675111 -20.161803 0.006089 4.520518 -4.415873 -0.178920 -0.098737 0.033938 -0.000000 0.000000 0.000000 0.000000 0.000000 0.000000 0.000000 14.594586 -4.580391 0.542860 76.600700 9.652775 -3.563724 3.166725 19.794494 0.014899 0.486351 9.856786 0.036841 0.073382 -0.128170 0.000000 0.000000 0.000000 0.000000 0.000000 0.000000 0.000000 
